<?xml version="1.0" standalone="no"?>
<!DOCTYPE svg PUBLIC "-//W3C//DTD SVG 20010904//EN"
 "http://www.w3.org/TR/2001/REC-SVG-20010904/DTD/svg10.dtd">
<svg version="1.0" xmlns="http://www.w3.org/2000/svg"
 width="303.000000pt" height="303.000000pt" viewBox="0 0 303.000000 303.000000"
 preserveAspectRatio="xMidYMid meet">
<metadata>
Created by potrace 1.11, written by Peter Selinger 2001-2013
</metadata>
<g transform="translate(0.000000,303.000000) scale(0.100000,-0.100000)"
fill="#000000" stroke="none">
<path d="M1296 2965 c-255 -42 -484 -137 -681 -285 -303 -227 -503 -554 -572
-935 -25 -136 -22 -361 5 -502 90 -457 370 -831 780 -1042 485 -249 1070 -217
1527 84 540 356 780 1013 600 1640 -33 113 -118 292 -193 404 -81 122 -272
311 -397 394 -172 113 -342 184 -544 228 -128 27 -399 34 -525 14z m858 -391
c14 -36 -38 -109 -174 -244 l-136 -135 -77 -155 c-42 -85 -90 -195 -106 -245
-27 -83 -83 -339 -111 -512 -6 -40 -15 -73 -19 -73 -5 0 -11 73 -15 163 -6
153 -30 325 -62 447 -34 128 -98 307 -120 337 -14 18 -78 77 -143 132 -114 96
-171 153 -171 171 0 15 31 40 50 40 18 0 110 -86 110 -102 0 -4 -18 12 -41 37
-48 52 -75 63 -96 42 -14 -13 -13 -18 3 -39 19 -25 237 -210 256 -217 18 -6
-12 42 -64 102 -28 32 -48 60 -46 62 7 8 101 -115 139 -180 33 -58 43 -78 69
-140 l13 -30 14 45 c18 60 27 134 19 157 -7 15 -10 13 -26 -17 -24 -44 -25
-27 -2 20 22 44 35 42 46 -9 7 -32 4 -63 -14 -135 -12 -52 -20 -105 -17 -118
2 -13 21 -81 41 -153 20 -71 46 -177 57 -235 12 -58 25 -109 29 -113 4 -4 10
24 14 64 17 181 80 353 231 627 31 56 35 73 37 140 l2 77 6 -70 c5 -66 6 -68
18 -42 7 16 13 40 13 55 1 15 5 41 10 57 6 23 7 19 3 -17 -3 -27 -3 -48 1 -48
3 0 19 15 36 33 l31 32 -22 -38 c-12 -21 -20 -40 -18 -42 9 -9 176 172 197
214 32 63 14 72 -39 19 -30 -31 -38 -36 -30 -18 30 62 89 92 104 54z m-266
-109 c-3 -3 -9 2 -12 12 -6 14 -5 15 5 6 7 -7 10 -15 7 -18z m-37 -21 c-9 -28
-9 -29 -10 -3 -1 14 2 29 6 32 11 12 13 2 4 -29z m-454 -316 c-3 -8 -6 -5 -6
6 -1 11 2 17 5 13 3 -3 4 -12 1 -19z m-448 -40 c110 -34 254 -185 341 -357 29
-59 103 -243 140 -350 37 -107 48 -156 69 -300 l17 -113 49 133 c90 249 149
349 327 557 141 164 364 310 605 393 46 16 86 29 90 29 5 0 -41 -25 -100 -56
-189 -96 -280 -164 -421 -316 -84 -91 -157 -209 -199 -323 -73 -196 -92 -254
-122 -359 -18 -67 -43 -175 -55 -241 -34 -189 -40 -205 -35 -85 10 216 44 360
164 685 10 28 10 29 -4 10 -29 -37 -123 -230 -158 -325 -56 -149 -133 -407
-147 -493 -12 -73 -30 -113 -30 -68 0 33 -99 525 -136 678 -62 254 -132 458
-191 557 -105 177 -226 284 -340 301 -82 13 -180 -48 -231 -142 -99 -188 -98
-391 3 -593 35 -69 65 -100 97 -100 26 0 22 -15 -7 -28 -49 -23 -81 -15 -114
27 -84 106 -115 315 -72 495 25 104 84 236 130 288 17 20 53 49 78 64 88 51
161 60 252 32z m-85 -835 c-31 -64 -82 -102 -146 -110 l-43 -5 45 29 c86 56
123 112 151 228 l14 60 3 -74 c3 -63 -1 -82 -24 -128z m187 -432 c40 -28 188
-171 255 -249 l29 -33 2 47 c3 56 14 72 34 48 16 -19 17 -111 2 -139 -9 -15
-14 -12 -42 23 -37 47 -124 111 -231 171 -81 45 -130 93 -130 126 0 44 21 45
81 6z"/>
<path d="M990 814 c0 -32 22 -54 93 -95 39 -23 88 -51 107 -62 l35 -20 -45 48
c-62 66 -158 145 -176 145 -7 0 -14 -7 -14 -16z"/>
</g>
</svg>
